<svg width="151" height="42" viewBox="0 0 570 87" fill="none" xmlns="http://www.w3.org/2000/svg">
<g clip-path="url(#clip0_322_2872)">
<path d="M96.274 0.000441777C96.274 0.000441777 23.787 -0.000552221 9.77402 0.000441777C-4.23897 0.00143577 -2.23873 25.0004 9.77402 25.0004C21.7868 25.0004 21.7865 61.0005 9.77402 61.0005C-2.23844 61.0005 -3.71548 85.0004 9.77402 86.0004C23.2635 87.0004 96.274 87.0004 96.274 87.0004V0.000441777Z" fill="url(#paint0_linear_322_2872)"/>
<path d="M137.787 87.0004H103.787V0.000441777H137.787C148.787 -0.0054176 147.55 25.0004 137.787 25.0004C125.287 25.0004 126.287 61.0005 137.787 61.0005C149.287 61.0005 149.287 87.0004 137.787 87.0004Z" fill="url(#paint1_linear_322_2872)"/>
<path d="M170 17.312H184.91V30.234H201.666V44.789H184.91V54.942C184.91 55.652 185.123 55.936 185.62 55.936L201.666 56.007V69H174.899C171.491 69 170 67.083 170 63.959V17.312ZM198.458 56.007H217.983C217.983 73.26 217.983 51.747 217.983 69H198.458V56.007ZM203.073 30.376H217.983V54.445H203.073V30.376ZM203.073 17.383H217.983V28.885H203.073V17.383ZM224.336 17.312H246.204C249.612 17.312 251.103 19.229 251.103 22.424V54.374H236.193V31.37C236.193 30.944 235.909 30.376 235.27 30.376C234.631 30.376 234.347 30.944 234.347 31.37V54.729C234.347 55.723 234.702 56.007 235.625 56.007H251.103V69H224.336C220.928 69 219.437 67.083 219.437 63.959V22.353C219.437 19.229 220.928 17.312 224.336 17.312ZM269.266 48.126C269.266 47.345 268.982 47.132 268.272 47.132H267.42V69H252.51V17.312H267.42V41.168H268.272C268.84 41.168 269.195 41.026 269.266 40.458V22.353C269.266 19.229 270.757 17.312 274.165 17.312H284.176V38.115C284.176 41.239 282.685 43.156 279.277 43.156H279.206V44.15H279.277C282.685 44.15 284.176 46.067 284.176 49.191V69H274.165C270.757 69 269.266 67.083 269.266 63.959V48.126ZM290.553 17.312H317.32V28.814H301.274C300.848 28.814 300.564 29.027 300.564 29.524V30.376H317.32V41.381H300.564V42.233C300.564 42.73 300.848 42.943 301.274 42.943H317.32V54.445H290.553C287.145 54.445 285.654 52.528 285.654 49.404V22.353C285.654 19.229 287.145 17.312 290.553 17.312ZM281.039 56.007H317.32V69H281.039V56.007ZM335.482 47.558H350.392V63.959C350.392 67.083 348.901 69 345.493 69H323.625C320.217 69 318.726 67.083 318.726 63.959V17.312H333.636V30.376H350.392V44.931H333.636V54.942C333.636 55.723 333.92 56.007 334.63 56.007H335.482V47.558ZM368.555 31.086C368.484 30.589 368.2 30.447 367.774 30.376H366.709V69H351.799V17.312L395.038 17.241C398.446 17.241 399.937 19.158 399.937 22.282V69H389.926C386.518 69 385.027 67.083 385.027 63.959V31.299C385.027 30.66 384.814 30.376 384.246 30.305H383.465V69H373.454C370.046 69 368.555 67.083 368.555 63.959V31.086ZM416.284 54.445H401.374V22.353C401.374 19.229 402.865 17.312 406.273 17.312H428.141C431.549 17.312 433.04 19.229 433.04 22.353V54.445H418.13V50.114H416.284V54.445ZM396.83 56.007H433.04V69H396.83V56.007ZM416.284 31.37V42.162H418.13V31.37C418.13 30.944 417.846 30.376 417.207 30.376C416.568 30.376 416.284 30.944 416.284 31.37ZM466.113 40.245V63.959C466.113 67.083 464.622 69 461.214 69H439.346C435.938 69 434.447 67.083 434.447 63.959V49.759H449.357V55.013C449.357 55.439 449.641 56.007 450.28 56.007C450.919 56.007 451.203 55.439 451.203 55.013V48.197H439.346C435.938 48.197 434.447 46.28 434.447 43.156V22.353C434.447 19.229 435.938 17.312 439.346 17.312H461.214C464.622 17.312 466.113 19.229 466.113 22.353V33.358H451.203V31.37C451.203 30.944 450.919 30.376 450.28 30.376C449.641 30.376 449.357 30.944 449.357 31.37V35.204H461.214C464.622 35.204 466.113 37.121 466.113 40.245ZM484.277 47.558H499.187V63.959C499.187 67.083 497.696 69 494.288 69H472.42C469.012 69 467.521 67.083 467.521 63.959V17.312H482.431V30.376H499.187V44.931H482.431V54.942C482.431 55.723 482.715 56.007 483.425 56.007H484.277V47.558ZM505.564 17.312H532.331V28.814H516.285C515.859 28.814 515.575 29.027 515.575 29.524V30.376H532.331V41.381H515.575V42.233C515.575 42.73 515.859 42.943 516.285 42.943H532.331V54.445H505.564C502.156 54.445 500.665 52.528 500.665 49.404V22.353C500.665 19.229 502.156 17.312 505.564 17.312ZM496.05 56.007H532.331V69H496.05V56.007ZM550.492 48.126C550.492 47.345 550.208 47.132 549.498 47.132H548.646V69H533.736V17.312H560.503C563.698 17.312 565.402 19.229 565.402 21.927V38.115C565.402 41.239 563.911 43.156 560.503 43.156H560.432V44.15H560.503C563.911 44.15 565.402 46.067 565.402 49.191V69H555.391C551.983 69 550.492 67.083 550.492 63.959V48.126ZM550.492 40.458V30.376H548.646V41.168H549.498C550.066 41.168 550.492 41.026 550.492 40.458Z" fill="#EEEEEE"/>
</g>
<defs>
<linearGradient id="paint0_linear_322_2872" x1="146" y1="44" x2="1.91481e-06" y2="44" gradientUnits="userSpaceOnUse">
<stop stop-color="#373A40"/>
<stop offset="1" stop-color="#DC5F00"/>
</linearGradient>
<linearGradient id="paint1_linear_322_2872" x1="146" y1="44" x2="1.91481e-06" y2="44" gradientUnits="userSpaceOnUse">
<stop stop-color="#373A40"/>
<stop offset="1" stop-color="#DC5F00"/>
</linearGradient>
<clipPath id="clip0_322_2872">
<rect width="570" height="87" fill="white"/>
</clipPath>
</defs>
</svg>
