<svg width="50" height="50" viewBox="0 0 50 50" fill="none" xmlns="http://www.w3.org/2000/svg">
<g clip-path="url(#clip0_323_2993)">
<path d="M25 50C38.8071 50 50 38.8071 50 25C50 11.1929 38.8071 0 25 0C11.1929 0 0 11.1929 0 25C0 38.8071 11.1929 50 25 50Z" fill="#9B2227"/>
<path d="M22.5695 25.4609L19.5195 28.5109M19.5495 25.4909L22.5995 28.5409" stroke="#FFF2D8" stroke-width="2" stroke-miterlimit="10" stroke-linecap="round" stroke-linejoin="round"/>
<path d="M26.5293 26.9995H26.5393M30.4693 26.9995H30.4793M28.4993 28.9795V28.9595M28.4993 25.0395V25.0195" stroke="#FFF2D8" stroke-width="2" stroke-miterlimit="10" stroke-linecap="round" stroke-linejoin="round"/>
<path d="M26.01 15L26 16.01C25.9974 16.2735 25.8908 16.5253 25.7036 16.7107C25.5163 16.896 25.2635 17 25 17H24.97C24.42 17 23.98 17.45 23.98 18C23.98 18.55 24.43 19 24.98 19H25.98M22 35H28C33 35 35 33 35 28V26C35 21 33 19 28 19H22C17 19 15 21 15 26V28C15 33 17 35 22 35Z" stroke="#FFF2D8" stroke-width="2" stroke-linecap="round" stroke-linejoin="round"/>
</g>
<defs>
<clipPath id="clip0_323_2993">
<rect width="50" height="50" fill="white"/>
</clipPath>
</defs>
</svg>
