<svg width="20" height="20" viewBox="0 0 20 20" fill="none" xmlns="http://www.w3.org/2000/svg">
<g clip-path="url(#clip0_323_3007)">
<mask id="mask0_323_3007" style="mask-type:luminance" maskUnits="userSpaceOnUse" x="0" y="0" width="20" height="20">
<path d="M20 0H0V20H20V0Z" fill="white"/>
</mask>
<g mask="url(#mask0_323_3007)">
<path d="M10.125 13.75V15.5" stroke="#FFF2D8" stroke-width="2" stroke-linecap="round" stroke-linejoin="round"/>
<path d="M5.95703 18.332H14.2903V17.4987C14.2903 16.582 13.5403 15.832 12.6237 15.832H7.6237C6.70703 15.832 5.95703 16.582 5.95703 17.4987V18.332Z" stroke="#FFF2D8" stroke-width="2" stroke-miterlimit="10"/>
<path d="M5.12435 18.3326H15.1243M9.99933 13.3326C6.77435 13.3326 4.16602 10.7243 4.16602 7.49935V4.99936C4.16602 3.15769 5.65768 1.66602 7.49935 1.66602H12.4993C14.341 1.66602 15.8327 3.15769 15.8327 4.99936V7.49935C15.8327 10.7243 13.2243 13.3326 9.99933 13.3326Z" stroke="#FFF2D8" stroke-width="2" stroke-linecap="round" stroke-linejoin="round"/>
<path d="M4.55756 9.70833C3.93256 9.50833 3.38256 9.14167 2.94922 8.70833C2.19922 7.875 1.69922 6.875 1.69922 5.70833C1.69922 4.54167 2.61589 3.625 3.78256 3.625H4.32422C4.15756 4.00833 4.07422 4.43333 4.07422 4.875V7.375C4.07422 8.20833 4.24922 8.99167 4.55756 9.70833ZM15.4409 9.70833C16.0659 9.50833 16.6159 9.14167 17.0492 8.70833C17.7992 7.875 18.2992 6.875 18.2992 5.70833C18.2992 4.54167 17.3825 3.625 16.2159 3.625H15.6742C15.8409 4.00833 15.9242 4.43333 15.9242 4.875V7.375C15.9242 8.20833 15.7492 8.99167 15.4409 9.70833Z" stroke="#FFF2D8" stroke-width="2" stroke-linecap="round" stroke-linejoin="round"/>
</g>
</g>
<defs>
<clipPath id="clip0_323_3007">
<rect width="20" height="20" fill="white"/>
</clipPath>
</defs>
</svg>
