<svg width="70" height="70" viewBox="0 0 70 70" fill="none" xmlns="http://www.w3.org/2000/svg">
<g clip-path="url(#clip0_323_3016)">
<path d="M44 0H26C11.6406 0 0 11.6406 0 26V44C0 58.3594 11.6406 70 26 70H44C58.3594 70 70 58.3594 70 44V26C70 11.6406 58.3594 0 44 0Z" fill="#94D2BD"/>
<path d="M29 20V24.5M41 20V24.5M22.25 30.635H47.75M48.5 29.75V42.5C48.5 47 46.25 50 41 50H29C23.75 50 21.5 47 21.5 42.5V29.75C21.5 25.25 23.75 22.25 29 22.25H41C46.25 22.25 48.5 25.25 48.5 29.75Z" stroke="#FFF2D8" stroke-width="3" stroke-miterlimit="10" stroke-linecap="round" stroke-linejoin="round"/>
<path d="M34.9929 37.5488H35.0079M29.4414 37.5488H29.4564M29.4414 42.0488H29.4564" stroke="#FFF2D8" stroke-width="3" stroke-linecap="round" stroke-linejoin="round"/>
</g>
<defs>
<clipPath id="clip0_323_3016">
<rect width="70" height="70" fill="white"/>
</clipPath>
</defs>
</svg>
