<svg width="50" height="50" viewBox="0 0 50 50" fill="none" xmlns="http://www.w3.org/2000/svg">
<g clip-path="url(#clip0_323_3002)">
<path d="M25 50C38.8071 50 50 38.8071 50 25C50 11.1929 38.8071 0 25 0C11.1929 0 0 11.1929 0 25C0 38.8071 11.1929 50 25 50Z" fill="#9B2227"/>
<path d="M19.8809 31.1496V29.0796M25.0009 31.1496V27.0096M30.1209 31.1496V24.9296M30.1209 18.8496L29.6609 19.3896C27.1078 22.3704 23.6894 24.4816 19.8809 25.4296" stroke="#FFF2D8" stroke-width="2" stroke-linecap="round"/>
<path d="M27.1895 18.8496H30.1195V21.7696" stroke="#FFF2D8" stroke-width="2" stroke-linecap="round" stroke-linejoin="round"/>
<path d="M22 35H28C33 35 35 33 35 28V22C35 17 33 15 28 15H22C17 15 15 17 15 22V28C15 33 17 35 22 35Z" stroke="#FFF2D8" stroke-width="2" stroke-linecap="round" stroke-linejoin="round"/>
</g>
<defs>
<clipPath id="clip0_323_3002">
<rect width="50" height="50" fill="white"/>
</clipPath>
</defs>
</svg>
