<svg width="253" height="200" viewBox="0 0 253 200" fill="none" xmlns="http://www.w3.org/2000/svg">
<g clip-path="url(#clip0_323_2962)">
<path d="M227.303 128.766H224.191V137.329H227.303V128.766Z" fill="#D4E3ED"/>
<path d="M227.303 133.551H224.191V134.342H227.303V133.551Z" fill="#EFF5F9"/>
<path d="M47.5773 50.6257L41.2154 40.4609L1.93365 65.1984C1.05473 65.7537 0.431142 66.6341 0.199007 67.6474C-0.0331276 68.6608 0.145046 69.7248 0.694634 70.6072L39.7714 133.435C40.0415 133.871 40.3952 134.249 40.8121 134.548C41.2289 134.847 41.7007 135.06 42.2004 135.176C42.7 135.291 43.2175 135.307 43.7232 135.222C44.2289 135.136 44.7127 134.952 45.1469 134.679L95.0651 103.26C95.944 102.705 96.5676 101.825 96.7998 100.811C97.0319 99.7979 96.8537 98.7339 96.3041 97.8514L63.6226 45.2883L54.4157 51.0831C52.5381 52.265 48.7543 52.5175 47.5773 50.6257Z" fill="#113946"/>
<path d="M47.3311 50.2934C47.6366 50.7891 48.0371 51.2195 48.5095 51.5598C48.9819 51.9002 49.5169 52.1438 50.0838 52.2766C50.6507 52.4095 51.2382 52.429 51.8126 52.334C52.387 52.239 52.937 52.0314 53.431 51.7231L63.6243 45.304L41.2266 40.4766L47.3311 50.2934Z" fill="#025464"/>
<path d="M48.5038 101.212C57.8365 101.212 65.4022 93.6036 65.4022 84.2182C65.4022 74.8329 57.8365 67.2246 48.5038 67.2246C39.1711 67.2246 31.6055 74.8329 31.6055 84.2182C31.6055 93.6036 39.1711 101.212 48.5038 101.212Z" fill="#EFF5F9"/>
<path d="M53.8697 79.8136L42.547 80.2187C42.3717 80.2264 42.2015 80.2799 42.0533 80.3737C41.9051 80.4676 41.7841 80.5986 41.7022 80.7537C41.6203 80.9089 41.5804 81.0827 41.5865 81.2581C41.5925 81.4334 41.6444 81.6041 41.7368 81.7531L47.7461 91.408C47.8395 91.5563 47.9701 91.6775 48.1251 91.7595C48.28 91.8414 48.4537 91.8813 48.6289 91.875C48.804 91.8687 48.9744 91.8166 49.1231 91.7237C49.2718 91.6309 49.3934 91.5007 49.476 91.346L54.799 81.2861C54.8826 81.1301 54.9234 80.9547 54.9171 80.7778C54.9109 80.6009 54.8578 80.4288 54.7633 80.2791C54.6689 80.1294 54.5364 80.0075 54.3794 79.9257C54.2224 79.8439 54.0465 79.8052 53.8697 79.8136Z" fill="#113946"/>
<path d="M105.946 112.377H120.109C121.258 112.378 122.388 112.664 123.399 113.211C124.41 113.758 125.269 114.547 125.899 115.508L132.294 125.244C132.923 126.205 133.782 126.995 134.793 127.541C135.804 128.088 136.935 128.374 138.084 128.375H185.848L181.512 175.291L188.417 186.089H94.2125C93.3739 186.087 92.544 185.919 91.7702 185.596C90.9964 185.273 90.2939 184.8 89.7027 184.205C89.1115 183.611 88.6432 182.905 88.3246 182.13C88.006 181.354 87.8433 180.523 87.8458 179.684V118.796C87.8408 117.956 88.0017 117.123 88.3192 116.346C88.6367 115.568 89.1047 114.861 89.6962 114.264C90.2877 113.668 90.9911 113.194 91.7661 112.87C92.5412 112.547 93.3725 112.379 94.2125 112.377H105.946Z" fill="#FD9F00"/>
<path d="M187.292 128.395H184.399C180.665 128.395 177.637 131.422 177.637 135.157V193.219C177.637 196.954 180.665 199.981 184.399 199.981H187.292C191.027 199.981 194.054 196.954 194.054 193.219V135.157C194.054 131.422 191.027 128.395 187.292 128.395Z" fill="#FD9F00"/>
<path d="M181.661 128.395H178.768C175.033 128.395 172.006 131.422 172.006 135.157V193.219C172.006 196.954 175.033 199.981 178.768 199.981H181.661C185.395 199.981 188.423 196.954 188.423 193.219V135.157C188.423 131.422 185.395 128.395 181.661 128.395Z" fill="#FD9F00"/>
<path d="M177.637 191.727V182.796C177.64 181.36 178.017 179.949 178.731 178.702C179.444 177.456 180.47 176.416 181.707 175.686V138.992C181.712 137.995 181.52 137.006 181.143 136.083C180.765 135.159 180.209 134.319 179.507 133.611C178.804 132.903 177.969 132.34 177.049 131.955C176.129 131.57 175.142 131.37 174.144 131.367H130.092C128.726 131.366 127.382 131.025 126.181 130.376C124.98 129.726 123.959 128.788 123.211 127.645L115.615 116.08C114.865 114.943 113.846 114.01 112.647 113.363C111.449 112.717 110.109 112.378 108.748 112.377H77.977C76.9793 112.379 75.9919 112.579 75.0714 112.964C74.151 113.348 73.3155 113.911 72.6129 114.62C71.9103 115.328 71.3545 116.168 70.9772 117.091C70.5999 118.015 70.4085 119.004 70.4142 120.002V192.375C70.4092 193.372 70.6009 194.361 70.9784 195.284C71.356 196.208 71.9119 197.047 72.6143 197.756C73.3168 198.464 74.152 199.027 75.0722 199.412C75.9924 199.797 76.9795 199.996 77.977 200H181.778V198.899C180.519 198.172 179.473 197.127 178.746 195.868C178.019 194.609 177.637 193.181 177.637 191.727Z" fill="#FE8D00"/>
<path d="M238.455 95.7461L242.806 84.5616L199.698 67.4583C199.22 67.2696 198.71 67.1771 198.197 67.1862C197.684 67.1952 197.178 67.3057 196.707 67.5112C196.237 67.7167 195.812 68.0132 195.457 68.3836C195.101 68.754 194.823 69.191 194.637 69.6695L167.607 138.616C167.225 139.583 167.242 140.661 167.654 141.615C168.066 142.569 168.839 143.321 169.804 143.706L224.583 165.436C225.06 165.624 225.57 165.716 226.083 165.707C226.596 165.698 227.102 165.587 227.573 165.382C228.043 165.176 228.468 164.88 228.823 164.51C229.179 164.14 229.458 163.703 229.644 163.225L252.251 105.563L242.153 101.555C240.09 100.736 237.64 97.8191 238.455 95.7461Z" fill="#FEECB2"/>
<path d="M238.573 95.3495C238.142 96.4456 238.161 97.668 238.628 98.7494C239.095 99.8309 239.972 100.683 241.066 101.121L252.25 105.557L242.805 84.5605L238.573 95.3495Z" fill="#FDC920"/>
<path d="M210.237 120.479L224.057 113.746L229.442 127.818L236.18 110.629C236.446 109.955 236.435 109.203 236.148 108.538C235.861 107.873 235.323 107.348 234.65 107.079L202.05 94.1786C201.717 94.0461 201.361 93.9809 201.003 93.9867C200.645 93.9924 200.292 94.0691 199.963 94.2122C199.635 94.3553 199.338 94.5621 199.09 94.8205C198.842 95.0789 198.648 95.3839 198.519 95.7179L188.12 122.242C187.954 122.665 187.895 123.121 187.949 123.572L207.716 113.922L210.237 120.479Z" fill="#FDC920"/>
<path d="M189.438 125.721L189.652 125.821L195.023 127.951H195.061L189.438 125.721Z" fill="#FDC920"/>
<path d="M195.021 127.928L222.228 138.717C222.459 138.81 222.703 138.869 222.952 138.893L195.021 127.928Z" fill="#FDC920"/>
<path d="M210.237 120.479L207.716 113.902L187.949 123.552C188.002 124.002 188.165 124.432 188.425 124.803C188.684 125.173 189.032 125.474 189.436 125.678L195.059 127.889L210.237 120.479Z" fill="#FDB200"/>
<path d="M225.759 137.157L229.419 127.817L224.034 113.744L210.214 120.478L216.243 136.204L195.036 127.879H194.998L222.928 138.839C223.519 138.907 224.116 138.78 224.628 138.476C225.139 138.172 225.537 137.709 225.759 137.157Z" fill="#FE8D00"/>
<path d="M216.267 136.234L210.239 120.498L195.061 127.908L216.267 136.234Z" fill="#FE8D00"/>
<path d="M205.12 107.721C204.197 107.351 203.457 106.631 203.06 105.718C202.664 104.805 202.644 103.773 203.004 102.846C203.184 102.388 203.452 101.971 203.793 101.617C204.133 101.263 204.541 100.979 204.991 100.783C205.442 100.586 205.927 100.48 206.418 100.471C206.91 100.462 207.398 100.55 207.855 100.73C208.778 101.101 209.516 101.822 209.91 102.735C210.304 103.648 210.321 104.68 209.957 105.605C209.595 106.526 208.882 107.265 207.976 107.662C207.069 108.058 206.042 108.08 205.12 107.721Z" fill="#FEDF80"/>
<path d="M177.708 187.261L177.637 187.152V139.021C177.642 138.023 177.451 137.034 177.074 136.11C176.696 135.187 176.14 134.347 175.438 133.638C174.735 132.93 173.9 132.367 172.979 131.983C172.059 131.598 171.071 131.398 170.074 131.396H126.041C124.675 131.395 123.33 131.053 122.129 130.403C120.928 129.752 119.907 128.813 119.159 127.669L111.559 116.104C110.811 114.96 109.791 114.021 108.589 113.37C107.388 112.719 106.043 112.378 104.677 112.377H73.9067C72.9091 112.379 71.9217 112.579 71.0012 112.964C70.0807 113.348 69.2453 113.911 68.5427 114.62C67.8401 115.328 67.2842 116.168 66.9069 117.091C66.5296 118.015 66.3383 119.004 66.3439 120.002V159.202C84.8208 177.182 109.581 187.249 135.362 187.261H177.708Z" fill="#FDC000"/>
<path d="M73.9085 199.986H185.849L177.71 187.262H135.364C109.583 187.249 84.8226 177.183 66.3457 159.203V192.376C66.3425 193.372 66.5357 194.359 66.914 195.281C67.2924 196.202 67.8486 197.04 68.5509 197.747C69.2531 198.454 70.0877 199.015 71.007 199.399C71.9262 199.784 72.9122 199.983 73.9085 199.986Z" fill="#FDB200"/>
<path d="M185.848 174.543C184.39 174.545 182.959 174.94 181.707 175.687V187.152L181.779 187.262V198.885C183.014 199.605 184.418 199.984 185.848 199.986C188.029 199.972 190.117 199.096 191.654 197.548C193.191 196.001 194.054 193.908 194.054 191.727V182.797C194.054 180.616 193.191 178.524 191.654 176.977C190.116 175.431 188.029 174.556 185.848 174.543Z" fill="#FD9F00"/>
<path d="M181.707 187.152V175.688C180.47 176.418 179.444 177.457 178.731 178.704C178.017 179.95 177.64 181.361 177.637 182.798V191.728C177.641 193.178 178.026 194.601 178.752 195.855C179.479 197.109 180.523 198.152 181.778 198.876V187.262L181.707 187.152Z" fill="#FE8D00"/>
<path d="M122.914 149.049H78.3809V151.841H122.914V149.049Z" fill="#FD9F00"/>
<path d="M101.927 160.537H78.3809V163.33H101.927V160.537Z" fill="#FD9F00"/>
<path d="M161.949 14.9856L162.683 2.99567L116.458 0.00772932C115.946 -0.0245601 115.432 0.0445283 114.946 0.211041C114.46 0.377554 114.012 0.638224 113.626 0.978143C113.241 1.31806 112.927 1.73055 112.702 2.19204C112.476 2.65352 112.344 3.15494 112.312 3.6676L107.585 77.6276C107.516 78.6632 107.86 79.6839 108.543 80.4657C109.225 81.2475 110.19 81.7265 111.226 81.7974L169.993 85.6098C171.028 85.6724 172.046 85.3215 172.822 84.6344C173.599 83.9473 174.071 82.98 174.135 81.9451L178.09 20.0846L167.253 19.3841C165.023 19.2316 161.806 17.2111 161.949 14.9856Z" fill="#3F2305"/>
<path d="M161.939 14.5714C161.862 15.7458 162.254 16.9028 163.028 17.789C163.803 18.6751 164.897 19.218 166.071 19.2987L178.07 20.0755L162.683 2.99609L161.939 14.5714Z" fill="#DFD7BF"/>
<path d="M138.16 44.6638C137.941 48.1522 135.973 50.2443 133.223 50.068C132.513 50.0519 131.823 49.834 131.232 49.4399C130.641 49.0458 130.175 48.4917 129.887 47.8424H129.835L129.506 53.2846L127.252 53.1368L128.205 38.4688L130.383 38.6118L130.264 40.518H130.302C130.67 39.8994 131.205 39.3975 131.846 39.0703C132.487 38.7431 133.207 38.6038 133.924 38.6689C136.692 38.8547 138.384 41.1755 138.16 44.6638ZM135.849 44.5113C135.997 42.2096 134.977 40.6562 133.195 40.5418C131.412 40.4274 130.226 41.8665 130.078 44.1396C129.93 46.4128 130.983 47.9949 132.713 48.1093C134.443 48.2236 135.701 46.8274 135.849 44.5113Z" fill="#BCA37F"/>
<path d="M139.4 44.7412C139.624 41.2672 141.597 39.1751 144.346 39.3514C145.057 39.3684 145.749 39.5876 146.34 39.9835C146.931 40.3793 147.396 40.9354 147.682 41.5864H147.72L148.102 35.6582L150.361 35.8059L149.407 50.922L147.22 50.779L147.344 48.9062H147.249C146.88 49.523 146.344 50.023 145.703 50.3485C145.062 50.6739 144.343 50.8116 143.627 50.7457C140.868 50.5598 139.181 48.22 139.4 44.7412ZM141.702 44.8937C141.554 47.2192 142.574 48.7442 144.356 48.8633C146.138 48.9824 147.334 47.5719 147.482 45.2654C147.63 42.9589 146.572 41.4101 144.842 41.2957C143.112 41.1814 141.849 42.5777 141.702 44.8937Z" fill="#BCA37F"/>
<path d="M152.919 41.8814L151.408 41.7861L151.523 40.0133L153.033 40.1134L153.1 39.0317C153.238 36.8967 154.301 35.9532 156.531 36.1009C156.953 36.1294 157.372 36.1915 157.784 36.2868L157.675 37.9594C157.407 37.899 157.134 37.8608 156.86 37.8451C155.878 37.7831 155.387 38.2454 155.325 39.2175L155.259 40.2564L157.479 40.3994L157.365 42.1721L155.178 42.0291L154.587 51.2598L152.328 51.1121L152.919 41.8814Z" fill="#BCA37F"/>
</g>
<defs>
<clipPath id="clip0_323_2962">
<rect width="253" height="200" fill="white"/>
</clipPath>
</defs>
</svg>
