<svg width="70" height="70" viewBox="0 0 70 70" fill="none" xmlns="http://www.w3.org/2000/svg">
<g clip-path="url(#clip0_323_2952)">
<path d="M44 0H26C11.6406 0 0 11.6406 0 26V44C0 58.3594 11.6406 70 26 70H44C58.3594 70 70 58.3594 70 44V26C70 11.6406 58.3594 0 44 0Z" fill="#94D2BD"/>
<path d="M35.0003 37.1452C35.6149 37.1452 36.2234 37.0241 36.7912 36.7889C37.359 36.5537 37.8749 36.209 38.3095 35.7744C38.7441 35.3398 39.0888 34.8239 39.324 34.2561C39.5592 33.6883 39.6803 33.0797 39.6803 32.4652C39.6803 31.8506 39.5592 31.242 39.324 30.6742C39.0888 30.1064 38.7441 29.5905 38.3095 29.1559C37.8749 28.7213 37.359 28.3766 36.7912 28.1414C36.2234 27.9062 35.6149 27.7852 35.0003 27.7852C33.7591 27.7852 32.5687 28.2782 31.691 29.1559C30.8133 30.0336 30.3203 31.2239 30.3203 32.4652C30.3203 33.7064 30.8133 34.8967 31.691 35.7744C32.5687 36.6521 33.7591 37.1452 35.0003 37.1452Z" stroke="#FFF2D8" stroke-width="3"/>
<path d="M22.4305 29.735C25.3855 16.745 44.6305 16.76 47.5705 29.75C49.2955 37.37 44.5555 43.82 40.4005 47.81C38.9486 49.2103 37.0101 49.9928 34.993 49.9928C32.9758 49.9928 31.0373 49.2103 29.5855 47.81C25.4455 43.82 20.7055 37.355 22.4305 29.735Z" stroke="#FFF2D8" stroke-width="3"/>
</g>
<defs>
<clipPath id="clip0_323_2952">
<rect width="70" height="70" fill="white"/>
</clipPath>
</defs>
</svg>
