<svg width="50" height="50" viewBox="0 0 50 50" fill="none" xmlns="http://www.w3.org/2000/svg">
<g clip-path="url(#clip0_323_2948)">
<path d="M25 50C38.8071 50 50 38.8071 50 25C50 11.1929 38.8071 0 25 0C11.1929 0 0 11.1929 0 25C0 38.8071 11.1929 50 25 50Z" fill="#9B2227"/>
<path d="M25 28.5C27.21 28.5 29 26.71 29 24.5V19C29 16.79 27.21 15 25 15C22.79 15 21 16.79 21 19V24.5C21 26.71 22.79 28.5 25 28.5Z" stroke="#FFF2D8" stroke-width="2" stroke-linecap="round" stroke-linejoin="round"/>
<path d="M17.3496 22.6491V24.3491C17.3496 28.5691 20.7796 31.9991 24.9996 31.9991M24.9996 31.9991C29.2196 31.9991 32.6496 28.5691 32.6496 24.3491V22.6491M24.9996 31.9991V34.9991M23.6096 19.4291C24.5096 19.0991 25.4896 19.0991 26.3896 19.4291M24.1996 21.5491C24.7296 21.4091 25.2796 21.4091 25.8096 21.5491" stroke="#FFF2D8" stroke-width="2" stroke-linecap="round" stroke-linejoin="round"/>
</g>
<defs>
<clipPath id="clip0_323_2948">
<rect width="50" height="50" fill="white"/>
</clipPath>
</defs>
</svg>
