<svg width="25" height="24" viewBox="0 0 25 24" fill="none" xmlns="http://www.w3.org/2000/svg">
<path d="M12.24 17.7494H18.16C18.07 17.8294 17.98 17.8994 17.89 17.9794L13.62 21.1794C12.21 22.2294 9.91 22.2294 8.49 21.1794L4.21 17.9794C3.27 17.2794 2.5 15.7294 2.5 14.5594V7.14937C2.5 5.92937 3.43 4.57938 4.57 4.14938L9.55 2.27938C10.37 1.96937 11.73 1.96937 12.55 2.27938L17.52 4.14938C18.47 4.50938 19.28 5.50938 19.53 6.52938H12.23C12.01 6.52938 11.81 6.53937 11.62 6.53937C9.77 6.64937 9.29 7.31938 9.29 9.42938V14.8594C9.3 17.1594 9.89 17.7494 12.24 17.7494Z" stroke="#FFF2D8" stroke-width="2" stroke-linecap="round" stroke-linejoin="round"/>
<path d="M9.30078 11.2188H22.5007" stroke="#FFF2D8" stroke-width="2" stroke-miterlimit="10" stroke-linecap="round" stroke-linejoin="round"/>
<path d="M22.5007 9.41977V14.9698C22.4807 17.1898 21.8707 17.7398 19.5607 17.7398H12.2407C9.89078 17.7398 9.30078 17.1498 9.30078 14.8398V9.40977C9.30078 7.30977 9.78078 6.63977 11.6307 6.51977C11.8207 6.51977 12.0207 6.50977 12.2407 6.50977H19.5607C21.9107 6.51977 22.5007 7.09977 22.5007 9.41977Z" stroke="#FFF2D8" stroke-width="2" stroke-linecap="round" stroke-linejoin="round"/>
<path d="M11.8203 15.2598H13.1503M15.2503 15.2598H18.5203" stroke="#FFF2D8" stroke-width="2" stroke-miterlimit="10" stroke-linecap="round" stroke-linejoin="round"/>
</svg>
