<svg width="36" height="36" viewBox="0 0 36 36" fill="none" xmlns="http://www.w3.org/2000/svg">
<g clip-path="url(#clip0_323_2923)">
<mask id="mask0_323_2923" style="mask-type:luminance" maskUnits="userSpaceOnUse" x="0" y="0" width="36" height="36">
<path d="M36 0H0V36H36V0Z" fill="white"/>
</mask>
<g mask="url(#mask0_323_2923)">
<path d="M17.0492 2.92731C17.3486 2.006 18.652 2.006 18.9514 2.92731L21.817 11.747C21.9509 12.159 22.3349 12.438 22.7681 12.438H32.0416C33.0104 12.438 33.4131 13.6776 32.6294 14.247L25.127 19.6979C24.7765 19.9525 24.6298 20.4039 24.7637 20.8159L27.6294 29.6356C27.9287 30.5569 26.8743 31.323 26.0905 30.7536L18.5881 25.3027C18.2376 25.0481 17.763 25.0481 17.4125 25.3027L9.91004 30.7536C9.12633 31.323 8.07185 30.5569 8.3712 29.6356L11.2369 20.8159C11.3708 20.4039 11.2241 19.9525 10.8736 19.6979L3.37116 14.247C2.58745 13.6776 2.99022 12.438 3.95895 12.438H13.2325C13.6657 12.438 14.0497 12.159 14.1836 11.747L17.0492 2.92731Z" fill="#FFAE35"/>
</g>
</g>
<defs>
<clipPath id="clip0_323_2923">
<rect width="36" height="36" fill="white"/>
</clipPath>
</defs>
</svg>
