<svg width="70" height="70" viewBox="0 0 70 70" fill="none" xmlns="http://www.w3.org/2000/svg">
<g clip-path="url(#clip0_323_2919)">
<path d="M44 0H26C11.6406 0 0 11.6406 0 26V44C0 58.3594 11.6406 70 26 70H44C58.3594 70 70 58.3594 70 44V26C70 11.6406 58.3594 0 44 0Z" fill="#94D2BD"/>
<path d="M50 35C50 43.28 43.28 50 35 50C26.72 50 20 43.28 20 35C20 26.72 26.72 20 35 20C43.28 20 50 26.72 50 35Z" stroke="#FFF2D8" stroke-width="3" stroke-linecap="round" stroke-linejoin="round"/>
<path d="M40.5653 39.7687L35.9153 36.9937C35.1053 36.5137 34.4453 35.3587 34.4453 34.4137V28.2637" stroke="#FFF2D8" stroke-width="3" stroke-linecap="round" stroke-linejoin="round"/>
</g>
<defs>
<clipPath id="clip0_323_2919">
<rect width="70" height="70" fill="white"/>
</clipPath>
</defs>
</svg>
