<svg width="78" height="24" viewBox="0 0 78 24" fill="none" xmlns="http://www.w3.org/2000/svg">
<g clip-path="url(#clip0_323_2910)">
<mask id="mask0_323_2910" style="mask-type:luminance" maskUnits="userSpaceOnUse" x="0" y="0" width="78" height="24">
<path d="M77.4212 0H0.890625V24H77.4212V0Z" fill="white"/>
</mask>
<g mask="url(#mask0_323_2910)">
<path d="M42.3894 11.4239C47.2235 9.23125 47.9384 2.07617 41.0623 2.07617H33.0993L30.1565 7.8464H31.5414L28.0215 21.6372H37.2538C43.9893 21.6948 47.0185 13.7635 42.3894 11.4239ZM37.2538 16.6171H34.9457L35.8112 13.5013H38.0038C40.6005 14.0205 38.985 16.7325 37.2538 16.6171ZM38.6387 9.98126H36.6769L37.2538 7.26929H39.4464C41.5651 7.78865 39.7352 10.0967 38.6387 9.98126Z" fill="#9B2227" stroke="#9B2227" stroke-width="0.220518"/>
<path d="M61.2916 9.44683L64.3146 4.11026L60.2241 1.97656L59.6905 2.63506C57.4838 1.46696 45.9287 3.07981 45.2051 14.4785C45.6376 24.0406 56.3523 22.3205 57.4033 21.7138L60.3502 15.6219C57.464 17.523 51.5543 18.4357 51.3043 12.725C51.8226 8.01581 57.3826 6.25719 61.2916 9.44683ZM76.3767 2.07748H67.0833L64.1293 7.67497H65.6469L58.6432 21.6385H65.4223L66.8141 18.2705H70.9755L71.0792 21.6385H77.3197L76.3767 2.07748ZM68.6995 13.7359L70.9753 8.30354L71.0791 13.7359H68.6995Z" fill="#9B2227" stroke="#9B2227" stroke-width="0.220518"/>
<path d="M18.3391 20.7045L18.7001 20.5998L18.3042 20.0527L18.3391 20.7045ZM12.4122 20.6114L12.3424 21.1005C12.522 21.0829 12.7433 21.2378 12.8314 20.8909C12.8248 20.6205 12.619 20.6056 12.4122 20.6114ZM15.2884 20.5998C15.2585 20.4666 15.1473 20.3685 14.8692 20.4602L14.9623 20.9607C15.1908 20.91 15.3083 20.7749 15.2884 20.5998ZM8.79087 20.1902L8.67969 20.6349C8.85838 20.6423 9.06768 20.7873 9.18631 20.5237C9.19425 20.3586 9.20104 20.1941 8.79087 20.1902ZM15.0439 21.3334L15.1255 21.8459C15.3162 21.8507 15.4903 21.736 15.4398 21.4966C15.3912 21.2663 15.1978 21.3027 15.0439 21.3334Z" fill="#9B2227"/>
<path d="M22.6175 2.34027C16.4515 -0.800886 9.08767 -0.713526 3.21271 2.20327C0.183243 7.53637 0.0867834 14.9982 3.21271 21.6071C9.68512 24.8824 16.8436 24.6667 22.663 21.7441C25.398 16.133 25.8497 9.38118 22.6175 2.34027ZM12.2038 18.2649L11.8383 18.2691C11.7478 17.2591 11.5064 16.4104 10.9885 15.7608C8.61381 12.7828 3.75937 15.0248 5.00673 9.96375C5.65532 7.37637 13.0532 5.85039 12.2038 18.2649ZM5.0155 13.2662C5.53404 14.3217 8.78274 14.4946 9.91047 15.3025C11.6993 16.5839 11.4425 18.2696 11.4425 18.2696H11.0206C10.1901 15.7237 7.859 17.7394 5.99185 17.0538C4.8196 16.6369 3.96851 14.8296 5.0155 13.2662ZM10.9344 21.5656L11.1092 20.1799L11.4235 20.2032L11.2837 21.7286C11.1427 22.4005 10.1409 22.3106 10.0145 21.6703L10.1775 20.0868L10.5501 20.1452L10.3871 21.4724C10.4078 21.9117 10.8484 21.8854 10.9344 21.5656ZM9.26156 21.944L8.90319 21.8574C8.94521 21.5613 9.29647 20.9587 8.60222 20.9587L8.40897 21.7463L8.01354 21.6721L8.43363 19.7815C9.46044 19.8933 9.55028 20.1791 9.57063 20.4858C9.53009 20.7237 9.46672 20.8899 9.26173 20.9306C9.50164 21.1483 9.26454 21.6046 9.26156 21.944ZM6.9854 19.8263C6.88663 19.9574 6.68891 20.4152 6.66029 20.78C6.62984 21.1667 7.00129 21.0853 7.09378 21.0401C7.1684 21.0039 7.22382 20.6933 7.22382 20.6933L6.96373 20.6066L7.05043 20.3467L7.63581 20.5417L7.35404 21.5173L7.11562 21.4521L7.13729 21.3004C6.84543 21.4334 6.31118 21.3336 6.24847 20.9969C6.18576 20.7264 6.3757 19.9062 6.68196 19.523C6.97961 19.1504 7.7048 19.5146 7.7225 19.7398C7.74004 19.9641 7.65152 20.2166 7.65152 20.2166L7.37852 20.1652C7.37852 20.1652 7.39523 20.0841 7.41906 19.9564C7.44421 19.821 7.09129 19.6855 6.9854 19.8263ZM12.3085 21.414L12.2387 22.2525L11.9477 22.241L12.0524 20.2497C12.7792 20.2648 13.1959 20.3654 13.182 20.8786C13.1386 21.5798 12.5708 21.4221 12.3085 21.414ZM13.0331 18.2694H12.5461C12.5029 16.545 12.8345 13.391 11.9285 11.0698C11.242 9.3102 9.50478 8.51867 9.11977 7.09725C8.51023 4.8474 9.54763 2.41307 13.0331 2.22561C16.0548 2.53583 16.9831 4.86858 16.4677 7.0405C15.5816 9.21209 14.6952 8.90004 13.5918 11.0632C12.6906 13.382 13.0337 16.4199 13.0331 18.2694ZM18.4333 21.4607L18.0956 21.5772L17.9907 19.5743L18.3867 19.4696L19.3648 21.123L19.097 21.2977L18.7709 20.8321L18.3982 20.9718L18.4333 21.4607ZM14.4937 18.2694H14.1042C14.4252 13.8408 19.9903 14.803 20.4989 13.2662C21.3784 14.7897 21.0622 16.0743 20.1438 16.7328C17.8615 18.3698 15.673 15.5214 14.4937 18.2694ZM16.5587 20.506L16.7334 21.4259C16.8421 21.6379 16.9159 21.5987 17.0827 21.5773C17.2761 21.4374 17.2358 21.301 17.1992 21.1232L17.5369 21.0767C17.6249 21.7431 17.3081 21.8111 17.0711 21.8568C16.563 21.8932 16.4634 21.7942 16.3259 21.1349C16.2459 20.5705 16.1075 19.9746 16.5821 19.8657C17.361 19.7467 17.315 20.0973 17.3855 20.343L17.0478 20.4014C16.9939 20.1903 16.9163 20.1066 16.745 20.1222C16.589 20.1938 16.525 20.3098 16.5587 20.506ZM15.8484 21.4607C15.8646 21.7507 15.7662 21.9433 15.5806 22.008L14.7887 22.171L14.4743 20.2497C14.6368 20.2232 15.4335 19.9314 15.6271 20.4595C15.7225 20.782 15.6236 20.8976 15.5106 21.0416C15.7248 21.1104 15.7971 21.2772 15.8484 21.4607ZM13.815 11.8192C15.5791 6.85221 19.6157 7.72995 20.5109 9.96391C21.7375 14.4466 17.7881 13.2172 15.2583 15.0554C14.3021 15.887 13.7989 16.841 13.7915 18.2873H13.358C13.332 15.3743 13.2849 13.3116 13.815 11.8192Z" fill="#9B2227"/>
</g>
</g>
<defs>
<clipPath id="clip0_323_2910">
<rect width="78" height="24" fill="white"/>
</clipPath>
</defs>
</svg>
