<svg width="83" height="24" viewBox="0 0 83 24" fill="none" xmlns="http://www.w3.org/2000/svg">
<g clip-path="url(#clip0_323_2903)">
<mask id="mask0_323_2903" style="mask-type:luminance" maskUnits="userSpaceOnUse" x="0" y="0" width="83" height="24">
<path d="M82.4176 0H0V24H82.4176V0Z" fill="white"/>
</mask>
<g mask="url(#mask0_323_2903)">
<path d="M0.096936 16.4915C0.096936 15.2994 0.0761051 14.3014 0.0117188 13.4085H2.26618L2.37318 14.9405H2.43567C2.94603 14.1319 3.88152 13.1737 5.62563 13.1737C6.98722 13.1737 8.04959 13.9407 8.49651 15.0882H8.54006C8.90176 14.5144 9.32595 14.0884 9.81453 13.792C10.3892 13.3867 11.0501 13.1737 11.8995 13.1737C13.6228 13.1737 15.365 14.3431 15.365 17.6627V23.7643H12.8132V18.0434C12.8132 16.322 12.2176 15.2994 10.963 15.2994C10.0701 15.2994 9.41022 15.9395 9.13469 16.6837C9.05801 16.9677 9.01511 17.2598 9.00686 17.5539V23.7652H6.45508V17.766C6.45508 16.3229 5.88129 15.3003 4.66836 15.3003C3.69215 15.3003 3.03314 16.0673 2.79642 16.7888C2.69132 17.0444 2.64777 17.3437 2.64777 17.6391V23.7652H0.096936V16.4915ZM25.3079 21.2778C25.3079 22.2124 25.3505 23.1261 25.4556 23.7652H23.0951L22.9256 22.6177H22.8612C22.2231 23.4263 21.138 23.9982 19.801 23.9982C17.716 23.9982 16.5466 22.4898 16.5466 20.9152C16.5466 18.2971 18.8627 16.981 22.6927 17.0018V16.8324C22.6927 16.1506 22.4153 15.0239 20.5859 15.0239C19.5643 15.0239 18.5019 15.3439 17.8003 15.7889L17.2899 14.0874C18.0559 13.6187 19.3957 13.1727 21.0319 13.1727C24.3507 13.1727 25.3089 15.2805 25.3089 17.5321L25.3079 21.2778ZM22.7552 18.7052C20.9041 18.6617 19.1401 19.066 19.1401 20.6397C19.1401 21.6604 19.801 22.1291 20.6295 22.1291C21.6701 22.1291 22.4371 21.4464 22.6709 20.7031C22.7282 20.5173 22.7569 20.3238 22.7561 20.1293L22.7552 18.7052ZM27.1145 16.4915C27.1145 15.2994 27.0928 14.3014 27.0312 13.4085H29.3254L29.4523 14.9633H29.5167C29.9627 14.1537 31.0904 13.1737 32.8127 13.1737C34.6212 13.1737 36.4913 14.3431 36.4913 17.6201V23.7643H33.876V17.9175C33.876 16.429 33.3221 15.2984 31.8981 15.2984C30.8575 15.2984 30.1322 16.0436 29.8566 16.8314C29.7714 17.0643 29.7506 17.3844 29.7506 17.6798V23.7634H27.1136L27.1145 16.4915ZM47.8327 9.24805V20.8518C47.8327 21.9151 47.8763 23.0655 47.9179 23.7652H45.5801L45.4732 22.1291H45.4296C44.8141 23.2767 43.5577 23.9991 42.0493 23.9991C39.5818 23.9991 37.6265 21.8943 37.6265 18.7062C37.6038 15.2388 39.7721 13.1746 42.2624 13.1746C43.6864 13.1746 44.7071 13.7702 45.1749 14.5391H45.2194V9.249H47.8337L47.8327 9.24805ZM45.2185 17.7252C45.2185 17.5141 45.1976 17.2584 45.1541 17.0445C44.9202 16.0256 44.0926 15.1952 42.9005 15.1952C41.2208 15.1952 40.2834 16.6846 40.2834 18.6191C40.2834 20.5099 41.2199 21.8933 42.8797 21.8933C43.9411 21.8933 44.8776 21.169 45.1323 20.0422C45.1967 19.8093 45.2194 19.5527 45.2194 19.2771L45.2185 17.7252ZM49.6829 23.7652V13.4085H52.3218V23.7652H49.6829ZM54.17 16.7481C54.17 15.3448 54.1502 14.344 54.0867 13.4095H56.362L56.4453 15.3856H56.5315C57.0419 13.9189 58.2529 13.4095 59.3617 13.4095C59.6164 13.4095 59.7641 13.3659 59.9762 13.4095V15.7075C59.7252 15.652 59.4691 15.6234 59.2121 15.6223C57.9546 15.6223 57.1044 16.4309 56.8714 17.5984C56.8199 17.8656 56.7917 18.1368 56.7872 18.4089V23.7662H54.17V16.7481ZM61.19 23.7652V13.4085H63.8252V23.7652H61.19Z" fill="#9B2227"/>
<path d="M80.2397 2.45612C78.9339 0.966715 77.5458 1.64088 76.4428 2.18911C75.9788 2.41825 72.6298 4.3167 72.6298 4.3167C70.7947 5.07324 69.3659 4.24758 68.8054 3.55258C68.7518 3.48668 68.7033 3.41671 68.6605 3.34333L68.5299 3.11703C68.309 2.73507 68.0636 2.36786 67.7951 2.01773C67.6322 1.8055 67.4557 1.60403 67.2668 1.41458C66.0112 0.146736 64.0048 -0.74047 60.6511 0.871082C59.0632 1.79143 53.8905 4.74657 53.8905 4.74657C51.9466 5.54667 50.46 4.57235 49.9771 3.85747C49.9554 3.8307 49.9364 3.80184 49.9203 3.77131L49.8569 3.66336L49.5293 3.12744C49.3814 2.89268 49.2228 2.66488 49.054 2.44476C48.8894 2.23389 48.7127 2.03281 48.5247 1.84256C47.2776 0.582291 45.2817 -0.303021 41.9573 1.27823C39.9471 2.42582 35.2715 5.0988 35.2715 5.0988L35.2696 5.1007L31.8477 7.05596L33.6183 9.22994C34.3635 9.94009 35.7639 11.1047 37.9303 10.1228C37.9303 10.1228 43.9097 6.66017 43.9333 6.64975C49.0454 3.84422 51.5679 6.52477 52.6833 8.31149C52.7221 8.36735 52.7533 8.42795 52.7884 8.48192L52.7903 8.48476C52.8045 8.50654 52.813 8.52643 52.8253 8.54726L52.9512 8.75367C53.4947 9.57744 54.3516 10.1096 55.3733 10.085C55.9367 10.0736 56.3192 9.8899 56.8759 9.58028L62.6612 6.22461L62.6736 6.21893C67.85 3.37931 70.4151 6.23503 71.5106 8.02175C71.5958 8.17609 71.6924 8.3238 71.7918 8.46109C72.3343 9.1968 73.0824 9.67875 74.033 9.65508C74.6608 9.64277 75.3643 9.26592 75.4694 9.1968L82.4051 5.19349C82.407 5.19538 81.6988 4.12449 80.2397 2.45612Z" fill="#9B2227"/>
</g>
</g>
<defs>
<clipPath id="clip0_323_2903">
<rect width="83" height="24" fill="white"/>
</clipPath>
</defs>
</svg>
