<svg width="40" height="40" viewBox="0 0 40 40" fill="none" xmlns="http://www.w3.org/2000/svg">
<g clip-path="url(#clip0_323_2898)">
<path d="M25.759 22.2432C25.759 23.3182 26.6423 24.1932 27.7173 24.1932C27.7173 27.3182 26.934 28.1016 23.809 28.1016H15.9923C12.8673 28.1016 12.084 27.3182 12.084 24.1932V23.8099C12.6027 23.8077 13.0996 23.6007 13.4663 23.2339C13.8331 22.8671 14.0402 22.3703 14.0423 21.8516C14.0402 21.3328 13.8331 20.836 13.4663 20.4692C13.0996 20.1024 12.6027 19.8954 12.084 19.8932V19.5099C12.0923 16.3849 12.8673 15.6016 15.9923 15.6016H23.8007C26.9257 15.6016 27.709 16.3849 27.709 19.5099V20.2932C26.634 20.2932 25.759 21.1599 25.759 22.2432Z" stroke="#001219" stroke-width="2" stroke-linecap="round" stroke-linejoin="round"/>
<path d="M23.5086 15.6034H15.9336L18.3753 13.1617C20.367 11.1701 21.367 11.1701 23.3586 13.1617L23.8586 13.6617C23.3336 14.1867 23.2086 14.9617 23.5086 15.6034Z" stroke="#001219" stroke-width="2" stroke-linecap="round" stroke-linejoin="round"/>
<path d="M18.2324 15.6016V28.1016" stroke="#001219" stroke-width="2" stroke-linecap="round" stroke-linejoin="round" stroke-dasharray="5 5"/>
<path d="M25.9598 8.00012C25.9598 8.00012 5.66112 7.99985 1.73704 8.00012C-2.18705 8.0004 -1.62691 14.8966 1.73704 14.8966C5.10099 14.8966 5.10091 24.8276 1.73704 24.8276C-1.62683 24.8276 -2.04045 31.4483 1.73704 31.7241C5.51453 32 25.9598 32 25.9598 32V8.00012Z" fill="url(#paint0_linear_323_2898)"/>
<path d="M37.5847 32H28.0637V8.00012H37.5847C40.6651 7.99851 40.3187 14.8966 37.5847 14.8966C34.0844 14.8966 34.3644 24.8276 37.5847 24.8276C40.8051 24.8276 40.8051 32 37.5847 32Z" fill="url(#paint1_linear_323_2898)"/>
</g>
<defs>
<linearGradient id="paint0_linear_323_2898" x1="39.8846" y1="20.1379" x2="16" y2="20" gradientUnits="userSpaceOnUse">
<stop stop-color="#FFF2D8"/>
<stop offset="1" stop-color="#94D2BD"/>
</linearGradient>
<linearGradient id="paint1_linear_323_2898" x1="39.8846" y1="20.1379" x2="16" y2="20" gradientUnits="userSpaceOnUse">
<stop stop-color="#FFF2D8"/>
<stop offset="1" stop-color="#94D2BD"/>
</linearGradient>
<clipPath id="clip0_323_2898">
<rect width="40" height="40" fill="white"/>
</clipPath>
</defs>
</svg>
