<svg width="229" height="42" viewBox="0 0 229 42" fill="none" xmlns="http://www.w3.org/2000/svg">
<path d="M26.3022 10.0001C26.3022 10.0001 6.49865 9.99985 2.67028 10.0001C-1.15809 10.0004 -0.611624 16.8966 2.67028 16.8966C5.95218 16.8966 5.9521 26.8276 2.67028 26.8276C-0.611545 26.8276 -1.01508 33.4483 2.67028 33.7241C6.35563 34 26.3022 34 26.3022 34V10.0001Z" fill="url(#paint0_linear_323_2892)"/>
<path d="M37.6437 34H28.3548V10.0001H37.6437C40.6489 9.99851 40.311 16.8966 37.6437 16.8966C34.2287 16.8966 34.5019 26.8276 37.6437 26.8276C40.7854 26.8276 40.7854 34 37.6437 34Z" fill="url(#paint1_linear_323_2892)"/>
<path d="M44 10.704H50.72V16.528H58.272V23.088H50.72V27.664C50.72 27.984 50.816 28.112 51.04 28.112L58.272 28.144V34H46.208C44.672 34 44 33.136 44 31.728V10.704ZM56.8262 28.144H65.6263C65.6263 35.92 65.6263 26.224 65.6263 34H56.8262V28.144ZM58.9062 16.592H65.6263V27.44H58.9062V16.592ZM58.9062 10.736H65.6263V15.92H58.9062V10.736ZM68.4893 10.704H78.3453C79.8813 10.704 80.5533 11.568 80.5533 13.008V27.408H73.8333V17.04C73.8333 16.848 73.7053 16.592 73.4173 16.592C73.1293 16.592 73.0013 16.848 73.0013 17.04V27.568C73.0013 28.016 73.1613 28.144 73.5773 28.144H80.5533V34H68.4893C66.9533 34 66.2812 33.136 66.2812 31.728V12.976C66.2812 11.568 66.9533 10.704 68.4893 10.704ZM88.7395 24.592C88.7395 24.24 88.6115 24.144 88.2915 24.144H87.9075V34H81.1875V10.704H87.9075V21.456H88.2915C88.5475 21.456 88.7075 21.392 88.7395 21.136V12.976C88.7395 11.568 89.4115 10.704 90.9475 10.704H95.4595V20.08C95.4595 21.488 94.7875 22.352 93.2515 22.352H93.2195V22.8H93.2515C94.7875 22.8 95.4595 23.664 95.4595 25.072V34H90.9475C89.4115 34 88.7395 33.136 88.7395 31.728V24.592ZM98.3338 10.704H110.398V15.888H103.166C102.974 15.888 102.846 15.984 102.846 16.208V16.592H110.398V21.552H102.846V21.936C102.846 22.16 102.974 22.256 103.166 22.256H110.398V27.44H98.3338C96.7978 27.44 96.1258 26.576 96.1258 25.168V12.976C96.1258 11.568 96.7978 10.704 98.3338 10.704ZM94.0457 28.144H110.398V34H94.0457V28.144ZM118.583 24.336H125.303V31.728C125.303 33.136 124.631 34 123.095 34H113.239C111.703 34 111.031 33.136 111.031 31.728V10.704H117.751V16.592H125.303V23.152H117.751V27.664C117.751 28.016 117.879 28.144 118.199 28.144H118.583V24.336ZM133.49 16.912C133.458 16.688 133.33 16.624 133.138 16.592H132.658V34H125.938V10.704L145.426 10.672C146.962 10.672 147.634 11.536 147.634 12.944V34H143.122C141.586 34 140.914 33.136 140.914 31.728V17.008C140.914 16.72 140.818 16.592 140.562 16.56H140.21V34H135.698C134.161 34 133.49 33.136 133.49 31.728V16.912ZM155.001 27.44H148.281V12.976C148.281 11.568 148.953 10.704 150.489 10.704H160.345C161.881 10.704 162.553 11.568 162.553 12.976V27.44H155.833V25.488H155.001V27.44ZM146.233 28.144H162.553V34H146.233V28.144ZM155.001 17.04V21.904H155.833V17.04C155.833 16.848 155.705 16.592 155.417 16.592C155.129 16.592 155.001 16.848 155.001 17.04ZM177.46 21.04V31.728C177.46 33.136 176.788 34 175.252 34H165.396C163.86 34 163.188 33.136 163.188 31.728V25.328H169.908V27.696C169.908 27.888 170.036 28.144 170.324 28.144C170.612 28.144 170.74 27.888 170.74 27.696V24.624H165.396C163.86 24.624 163.188 23.76 163.188 22.352V12.976C163.188 11.568 163.86 10.704 165.396 10.704H175.252C176.788 10.704 177.46 11.568 177.46 12.976V17.936H170.74V17.04C170.74 16.848 170.612 16.592 170.324 16.592C170.036 16.592 169.908 16.848 169.908 17.04V18.768H175.252C176.788 18.768 177.46 19.632 177.46 21.04ZM185.646 24.336H192.366V31.728C192.366 33.136 191.694 34 190.158 34H180.302C178.766 34 178.094 33.136 178.094 31.728V10.704H184.814V16.592H192.366V23.152H184.814V27.664C184.814 28.016 184.942 28.144 185.262 28.144H185.646V24.336ZM195.24 10.704H207.304V15.888H200.072C199.88 15.888 199.752 15.984 199.752 16.208V16.592H207.304V21.552H199.752V21.936C199.752 22.16 199.88 22.256 200.072 22.256H207.304V27.44H195.24C193.704 27.44 193.032 26.576 193.032 25.168V12.976C193.032 11.568 193.704 10.704 195.24 10.704ZM190.952 28.144H207.304V34H190.952V28.144ZM215.49 24.592C215.49 24.24 215.362 24.144 215.042 24.144H214.658V34H207.938V10.704H220.002C221.442 10.704 222.21 11.568 222.21 12.784V20.08C222.21 21.488 221.538 22.352 220.002 22.352H219.97V22.8H220.002C221.538 22.8 222.21 23.664 222.21 25.072V34H217.698C216.161 34 215.49 33.136 215.49 31.728V24.592ZM215.49 21.136V16.592H214.658V21.456H215.042C215.298 21.456 215.49 21.392 215.49 21.136Z" fill="#FFF2D8"/>
<defs>
<linearGradient id="paint0_linear_323_2892" x1="39.8875" y1="22.1379" x2="16.5853" y2="22.0066" gradientUnits="userSpaceOnUse">
<stop stop-color="#FFF2D8"/>
<stop offset="1" stop-color="#94D2BD"/>
</linearGradient>
<linearGradient id="paint1_linear_323_2892" x1="39.8875" y1="22.1379" x2="16.5853" y2="22.0066" gradientUnits="userSpaceOnUse">
<stop stop-color="#FFF2D8"/>
<stop offset="1" stop-color="#94D2BD"/>
</linearGradient>
</defs>
</svg>
